<svg width="300" height="301" viewBox="0 0 300 301" fill="none" xmlns="http://www.w3.org/2000/svg">
<path d="M269.685 152.039C269.685 153.731 268.871 155.434 267.214 157.134C265.556 158.837 263.084 160.503 259.857 162.106C253.405 165.31 244.036 168.21 232.418 170.65C209.191 175.53 177.079 178.551 141.593 178.551C106.107 178.551 73.9945 175.53 50.7667 170.65C39.1487 168.21 29.7799 165.31 23.3278 162.106C20.1009 160.503 17.6292 158.837 15.9707 157.134C14.3139 155.434 13.5 153.731 13.5 152.039C13.5 150.347 14.3139 148.645 15.9707 146.944C17.6292 145.242 20.1009 143.576 23.3278 141.973C29.7799 138.769 39.1487 135.869 50.7667 133.428C73.9945 128.549 106.107 125.527 141.593 125.527C177.079 125.527 209.191 128.549 232.418 133.428C244.036 135.869 253.405 138.769 259.857 141.973C263.084 143.576 265.556 145.242 267.214 146.944C268.871 148.645 269.685 150.347 269.685 152.039Z" stroke="black"/>
<path d="M269.685 171.062C269.685 172.754 268.871 174.456 267.214 176.157C265.556 177.859 263.084 179.526 259.857 181.128C253.405 184.333 244.036 187.232 232.418 189.673C209.191 194.552 177.079 197.574 141.593 197.574C106.107 197.574 73.9945 194.552 50.7667 189.673C39.1487 187.232 29.7799 184.333 23.3278 181.128C20.1009 179.526 17.6292 177.859 15.9707 176.157C14.3139 174.456 13.5 172.754 13.5 171.062C13.5 169.37 14.3139 167.668 15.9707 165.967C17.6292 164.264 20.1009 162.598 23.3278 160.995C29.7799 157.791 39.1487 154.891 50.7667 152.451C73.9945 147.572 106.107 144.55 141.593 144.55C177.079 144.55 209.191 147.572 232.418 152.451C244.036 154.891 253.405 157.791 259.857 160.995C263.084 162.598 265.556 164.264 267.214 165.967C268.871 167.668 269.685 169.37 269.685 171.062Z" stroke="black"/>
<path d="M269.685 190.084C269.685 191.776 268.871 193.479 267.214 195.179C265.556 196.882 263.084 198.548 259.857 200.151C253.405 203.355 244.036 206.255 232.418 208.695C209.191 213.575 177.079 216.596 141.593 216.596C106.107 216.596 73.9945 213.575 50.7667 208.695C39.1487 206.255 29.7799 203.355 23.3278 200.151C20.1009 198.548 17.6292 196.882 15.9707 195.179C14.3139 193.479 13.5 191.776 13.5 190.084C13.5 188.392 14.3139 186.69 15.9707 184.989C17.6292 183.287 20.1009 181.62 23.3278 180.018C29.7799 176.813 39.1487 173.914 50.7667 171.473C73.9945 166.594 106.107 163.572 141.593 163.572C177.079 163.572 209.191 166.594 232.418 171.473C244.036 173.914 253.405 176.813 259.857 180.018C263.084 181.62 265.556 183.287 267.214 184.989C268.871 186.69 269.685 188.392 269.685 190.084Z" stroke="black"/>
<path d="M204.891 51.7202L205.058 52.6256L205.726 51.9917L241.122 18.4052L220.117 62.447L219.72 63.2781L220.633 63.158L269.01 56.7907L226.13 80.0749L225.321 80.5143L226.13 80.9537L269.01 104.238L220.633 97.8707L219.72 97.7505L220.117 98.5816L241.122 142.623L205.726 109.037L205.058 108.403L204.891 109.308L195.997 157.285L187.103 109.308L186.935 108.403L186.267 109.037L150.872 142.623L171.877 98.5816L172.273 97.7505L171.36 97.8707L122.983 104.238L165.864 80.9537L166.673 80.5143L165.864 80.0749L122.983 56.7907L171.36 63.158L172.273 63.2781L171.877 62.447L150.872 18.4052L186.267 51.9917L186.935 52.6256L187.103 51.7202L195.997 3.74317L204.891 51.7202Z" stroke="black"/>
<path d="M223.771 135.68L237.307 169.966L272.553 159.172L254.186 191.132L284.601 211.958L248.162 217.525L250.843 254.289L223.771 229.271L196.699 254.289L199.38 217.525L162.941 211.958L193.356 191.132L174.989 159.172L210.235 169.966L223.771 135.68Z" fill="#D9D9D9"/>
<path d="M106.756 233.914L125.926 201.878L145.25 233.914L180.356 251.439L145.25 268.964L125.926 301L106.756 268.964L71.4961 251.439L106.756 233.914Z" fill="#B9FF66"/>
<circle cx="129.037" cy="142.908" r="47.0564" fill="black" stroke="black"/>
<ellipse cx="113.439" cy="132.636" rx="7.60903" ry="15.2181" fill="white"/>
<ellipse cx="144.636" cy="132.636" rx="7.60903" ry="15.2181" fill="white"/>
</svg>
