<svg width="150" height="48" viewBox="0 0 150 48" fill="none" xmlns="http://www.w3.org/2000/svg">
<g style="mix-blend-mode:luminosity" clip-path="url(#clip0_2921_154)">
<path fill-rule="evenodd" clip-rule="evenodd" d="M109.646 20.5972C110.069 21.2429 110.207 21.9774 110.252 22.8032L110.312 23.9039V31.6007L110.374 32.7025C110.496 34.502 111.993 35.8325 114.039 35.9457L115.276 36V23.9039L115.337 22.8032C115.388 21.9867 115.525 21.2382 115.954 20.588C116.391 19.921 117.018 19.3677 117.772 18.9835C118.527 18.5993 119.382 18.3978 120.252 18.3992C121.122 18.4006 121.977 18.6049 122.73 18.9915C123.483 19.3781 124.107 19.9335 124.542 20.6018C124.964 21.2475 125.095 21.9959 125.146 22.8032L125.207 23.9005V31.6007L125.269 32.7025C125.396 34.5112 126.882 35.8418 128.935 35.9457L130.171 36V22.8032C130.171 20.4697 129.126 18.2317 127.264 16.5813C125.403 14.9309 122.878 14.0032 120.245 14.0023C118.836 14.001 117.443 14.2662 116.158 14.7803C114.874 15.2944 113.728 16.0454 112.798 16.9833C111.866 16.0458 110.721 15.2949 109.436 14.7807C108.152 14.2665 106.759 14.0007 105.35 14.0012C103.288 14.0012 101.375 14.5555 99.7907 15.513C98.8237 14.5567 96.6605 14.0012 95.4186 14.0012V36L96.6605 35.9457C98.7377 35.8244 100.239 34.5297 100.32 32.7025L100.386 31.6007V23.9039L100.447 22.8032C100.5 21.9728 100.63 21.2429 101.053 20.5926C101.491 19.9261 102.118 19.3728 102.871 18.9882C103.625 18.6035 104.48 18.4009 105.35 18.4005C106.221 18.4006 107.076 18.6037 107.83 18.9893C108.584 19.3748 109.21 19.9294 109.646 20.5972ZM24.6766 35.9469L25.9185 36H44.5342L44.4729 34.9028C44.3048 33.0941 42.8596 31.7728 40.8123 31.655L39.5704 31.6007H28.4024L43.2922 18.3993L43.231 17.3032C43.1346 15.4761 41.6281 14.1559 39.5704 14.0554L38.3285 14.0058L19.7129 14.0012L19.7741 15.1019C19.937 16.8932 21.4031 18.2422 23.4334 18.3462L24.6766 18.4005H35.8447L20.9548 31.6018L21.016 32.7025C21.1385 34.5159 22.615 35.8291 24.6766 35.9457V35.9469ZM90.5461 17.2212C91.6987 18.2426 92.6131 19.4552 93.2369 20.7898C93.8607 22.1244 94.1818 23.5548 94.1818 24.9994C94.1818 26.444 93.8607 27.8744 93.2369 29.209C92.6131 30.5436 91.6987 31.7562 90.5461 32.7776C88.2173 34.8399 85.06 35.9983 81.768 35.9983C78.476 35.9983 75.3187 34.8399 72.9899 32.7776C68.1435 28.4823 68.1435 21.5166 72.9899 17.2212C74.1415 16.2002 75.5088 15.3902 77.0136 14.8375C78.5184 14.2848 80.1313 14.0002 81.7602 14C83.3917 13.999 85.0075 14.2831 86.5151 14.836C88.0226 15.3889 89.3924 16.1999 90.5461 17.2224V17.2212ZM87.0341 20.3362C88.43 21.5744 89.2142 23.2531 89.2142 25.0035C89.2142 26.7538 88.43 28.4326 87.0341 29.6707C85.6371 30.908 83.7429 31.6029 81.768 31.6029C79.7931 31.6029 77.8989 30.908 76.5019 29.6707C75.106 28.4326 74.3218 26.7538 74.3218 25.0035C74.3218 23.2531 75.106 21.5744 76.5019 20.3362C77.8989 19.099 79.7931 18.404 81.768 18.404C83.7429 18.404 85.6371 19.099 87.0341 20.3362ZM55.7126 14C57.3416 14.0004 58.9546 14.2851 60.4594 14.8381C61.9642 15.391 63.3314 16.2012 64.4829 17.2224C69.3307 21.5166 69.3307 28.4834 64.4829 32.7776C62.1542 34.8399 58.9968 35.9983 55.7048 35.9983C52.4128 35.9983 49.2555 34.8399 46.9268 32.7776C42.0803 28.4823 42.0803 21.5166 46.9268 17.2212C48.0783 16.2002 49.4456 15.3902 50.9504 14.8375C52.4552 14.2848 54.0681 14.0002 55.697 14H55.7126ZM60.9709 20.3339C62.3672 21.5721 63.1516 23.2511 63.1516 25.0017C63.1516 26.7524 62.3672 28.4314 60.9709 29.6696C59.5739 30.9068 57.6798 31.6018 55.7048 31.6018C53.7299 31.6018 51.8358 30.9068 50.4388 29.6696C49.0428 28.4314 48.2587 26.7527 48.2587 25.0023C48.2587 23.252 49.0428 21.5732 50.4388 20.335C51.8358 19.0978 53.7299 18.4028 55.7048 18.4028C57.6798 18.4028 59.5739 19.0978 60.9709 20.335V20.3339Z" fill="#2D8CFF"/>
</g>
<defs>
<clipPath id="clip0_2921_154">
<rect width="110.573" height="48" fill="white" transform="translate(19.7129)"/>
</clipPath>
</defs>
</svg>
