<svg width="150" height="48" viewBox="0 0 150 48" fill="none" xmlns="http://www.w3.org/2000/svg">
<g style="mix-blend-mode:luminosity" clip-path="url(#clip0_2921_153)">
<path d="M29.6008 38.0663C27.7167 38.3595 25.7995 38.4474 23.8162 38.6816L17.7669 22.9786V39.3555C15.8828 39.5313 14.1639 39.7656 12.3789 40V10H17.4035L24.2789 27.0217V10H29.6008V38.0663ZM40.0134 20.9863C42.063 20.9863 45.2033 20.8984 47.0874 20.8984V25.5858C44.7403 25.5858 41.9968 25.5858 40.0134 25.6737V32.6465C43.1208 32.4708 46.228 32.2362 49.3681 32.1483V36.6597L34.7244 37.6854V10H49.3681V14.6875H40.0134V20.9863ZM69.0362 14.6876H63.549V36.2501C61.764 36.2501 59.9789 36.2501 58.2603 36.3085V14.6876H52.7732V10H69.0364L69.0362 14.6876ZM77.6306 20.6642H84.8699V25.3516H77.6306V35.9864H72.4405V10H87.2168V14.6875H77.6306V20.6642ZM95.8112 31.8848C98.8193 31.9432 101.86 32.1486 104.802 32.2948V36.9238C100.075 36.66 95.3485 36.3966 90.5224 36.3085V10H95.8112V31.8848ZM109.265 37.2461C110.951 37.3341 112.736 37.422 114.455 37.5975V10H109.265V37.2461ZM137.627 10L130.916 24.2676L137.627 40C135.643 39.7656 133.66 39.4433 131.676 39.1503L127.875 30.4786L124.008 38.4474C122.09 38.1542 120.239 38.0663 118.323 37.8319L125.132 24.0917L118.983 10H124.669L128.14 17.8809L131.842 10H137.627V10Z" fill="#D81F26"/>
</g>
<defs>
<clipPath id="clip0_2921_153">
<rect width="125.241" height="48" fill="white" transform="translate(12.3789)"/>
</clipPath>
</defs>
</svg>
